<!-- Placeholder icon - Replace with actual SMC logo -->
<svg width="512" height="512" viewBox="0 0 512 512" fill="none" xmlns="http://www.w3.org/2000/svg">
  <rect width="512" height="512" rx="128" fill="#7c3aed"/>
  <path d="M256 128C203.1 128 160 171.1 160 224V288C160 314.5 181.5 336 208 336H304C330.5 336 352 314.5 352 288V224C352 171.1 308.9 128 256 128ZM320 288C320 296.8 312.8 304 304 304H208C199.2 304 192 296.8 192 288V224C192 188.7 220.7 160 256 160C291.3 160 320 188.7 320 224V288Z" fill="white"/>
  <path d="M256 192C238.3 192 224 206.3 224 224V256C224 273.7 238.3 288 256 288C273.7 288 288 273.7 288 256V224C288 206.3 273.7 192 256 192Z" fill="white"/>
  <path d="M128 344H384C397.3 344 408 354.7 408 368C408 381.3 397.3 392 384 392H128C114.7 392 104 381.3 104 368C104 354.7 114.7 344 128 344Z" fill="white"/>
</svg>
