<svg width="512" height="512" viewBox="0 0 512 512" fill="none" xmlns="http://www.w3.org/2000/svg">
  <!-- Background -->
  <rect width="512" height="512" rx="120" fill="url(#gradient)"/>
  <defs>
    <linearGradient id="gradient" x1="0" y1="0" x2="512" y2="512">
      <stop offset="0%" stop-color="#7c3aed"/>
      <stop offset="100%" stop-color="#5b21b6"/>
    </linearGradient>
  </defs>
  
  <!-- Road with damage -->
  <path d="M128 350 L384 350 L384 380 L128 380 Z" fill="#374151" opacity="0.9"/>
  <path d="M245 360 L267 360 L267 370 L245 370 Z" fill="white" opacity="0.8"/>
  
  <!-- Pothole/damage indicator -->
  <ellipse cx="200" cy="365" rx="25" ry="15" fill="#dc2626"/>
  
  <!-- Alert triangle -->
  <path d="M256 120 L340 280 L172 280 Z" fill="#fbbf24" stroke="white" stroke-width="8"/>
  <path d="M256 200 L256 240" stroke="#dc2626" stroke-width="12" stroke-linecap="round"/>
  <circle cx="256" cy="260" r="8" fill="#dc2626"/>
  
  <!-- Location pin -->
  <path d="M330 160 C330 130 305 105 275 105 C245 105 220 130 220 160 C220 180 275 240 275 240 C275 240 330 180 330 160 Z" fill="#10b981" opacity="0.9"/>
  <circle cx="275" cy="160" r="15" fill="white"/>
</svg>
